<mxfile host="app.diagrams.net" modified="2023-11-26T09:25:17.120Z" agent="Mozilla/5.0 (Windows NT 10.0; Win64; x64) AppleWebKit/537.36 (KHTML, like Gecko) Chrome/118.0.0.0 Safari/537.36 Edg/118.0.2088.61" version="22.1.4" etag="-7xjeHnEX3ZHvhYVBBjn" type="github">
  <diagram name="第 1 页" id="4XSfG1PYfw-l-w8LoAJh">
    <mxGraphModel>
      <root>
        <mxCell id="0" />
        <mxCell id="1" parent="0" />
      </root>
    </mxGraphModel>
  </diagram>
</mxfile>
